####
#
# OBJ File Generated by Meshlab
#
####
# Object flat.obj
#
# Vertices: 4
# Faces: 2
#
####
mtllib ./flat.obj.mtl

vn 0.000000 1.000000 0.000000
vt 1.000000 1.000000
v 1.000000 0.000000 1.000000
vn 0.000000 1.000000 0.000000
vt 1.000000 0.000000
v 0.000000 0.000000 1.000000
vn 0.000000 1.000000 0.000000
vt 0.000000 1.000000
v 1.000000 0.000000 0.000000
vn 0.000000 1.000000 0.000000
vt 0.000000 0.000000
v 0.000000 0.000000 0.000000
# 4 vertices, 0 vertices normals


usemtl material_0
f 1/1/1 4/4/4 2/2/2
f 4/4/4 1/1/1 3/3/3
# 2 faces, 0 coords texture

# End of File
