ply
format ascii 1.0
comment Created in Blender version 4.0.2
element vertex 12
property float x
property float y
property float z
property float nx
property float ny
property float nz
property float s
property float t
element face 6
property list uchar uint vertex_indices
end_header
0.5 -3.774895e-08 -0.5 0 -1 7.54979e-08 1 1
-0.5 3.774895e-08 0.5 0 -1 7.54979e-08 0 0
-0.5 -3.774895e-08 -0.5 0 -1 7.54979e-08 1 0
0.5 3.774895e-08 0.5 0 -1 7.54979e-08 0 1
0.5 0.5 -7.54979e-08 0 -1.509958e-07 -1 1 1
-0.5 -0.5 7.54979e-08 0 -1.509958e-07 -1 0 0
-0.5 0.5 -7.54979e-08 0 -1.509958e-07 -1 1 0
0.5 -0.5 7.54979e-08 0 -1.509958e-07 -1 0 1
-1.5893253e-08 0.49999997 0.5 -1 -4.371139e-08 1.1924881e-08 1 1
1.5893253e-08 -0.49999997 -0.5 -1 -4.371139e-08 1.1924881e-08 0 0
2.7818135e-08 -0.5 0.49999997 -1 -4.371139e-08 1.1924881e-08 1 0
-2.7818135e-08 0.5 -0.49999997 -1 -4.371139e-08 1.1924881e-08 0 1
3 0 1 2
3 1 0 3
3 4 5 6
3 5 4 7
3 8 9 10
3 9 8 11
