ply
format ascii 1.0
comment VCGLIB generated
element vertex 12
property float x
property float y
property float z
property float nx
property float ny
property float nz
property float texture_u
property float texture_v
element face 6
property list uchar int vertex_indices
end_header
0.5 -0.5 -0 0 0 -1 1 1
0.5 0.5 -0 0 0 -1 1 0
-0.5 -0.5 0 0 0 -1 0 1
-0.5 0.5 0 0 0 -1 0 0
0.5 0 0.5 0 1 0 1 1
-0.5 0 0.5 0 1 0 1 0
0.5 0 -0.5 0 1 0 0 1
-0.5 0 -0.5 0 1 0 0 0
0 -0.5 0.5 1 0 0 1 1
0 0.5 0.5 1 0 0 1 0
-0 -0.5 -0.5 1 0 0 0 1
-0 0.5 -0.5 1 0 0 0 0
3 0 3 1 
3 3 0 2 
3 4 7 5 
3 7 4 6 
3 8 11 9 
3 11 8 10 
