# Blender 4.0.2
# www.blender.org
o flat.005
v 0.500000 -0.500000 -0.000000
v 0.500000 0.500000 -0.000000
v -0.500000 -0.500000 0.000000
v -0.500000 0.500000 0.000000
v 0.500000 0.000000 0.500000
v -0.500000 0.000000 0.500000
v 0.500000 0.000000 -0.500000
v -0.500000 0.000000 -0.500000
v 0.000000 -0.500000 0.500000
v 0.000000 0.500000 0.500000
v -0.000000 -0.500000 -0.500000
v -0.000000 0.500000 -0.500000
vn -0.0000 -0.0000 -1.0000
vn -0.0000 1.0000 -0.0000
vn 1.0000 -0.0000 -0.0000
vt 1.000000 1.000000
vt 0.000000 0.000000
vt 1.000000 0.000000
vt 0.000000 1.000000
s 0
f 1/1/1 4/2/1 2/3/1
f 4/2/1 1/1/1 3/4/1
f 5/1/2 8/2/2 6/3/2
f 8/2/2 5/1/2 7/4/2
f 9/1/3 12/2/3 10/3/3
f 12/2/3 9/1/3 11/4/3
